<svg width="41" height="41" viewBox="0 0 41 41" fill="none" xmlns="http://www.w3.org/2000/svg">
<path fill-rule="evenodd" clip-rule="evenodd" d="M5.5 8.83366C5.5 5.15176 8.48477 2.16699 12.1667 2.16699H26.0719C27.84 2.16699 29.5357 2.86937 30.786 4.11961L33.5474 6.88104C34.7976 8.13128 35.5 9.82697 35.5 11.5951V32.167C35.5 35.8489 32.5152 38.8337 28.8333 38.8337H12.1667C8.48477 38.8337 5.5 35.8489 5.5 32.167V8.83366ZM32.1667 13.8337V32.167C32.1667 34.0079 30.6743 35.5003 28.8333 35.5003H12.1667C10.3257 35.5003 8.83333 34.0079 8.83333 32.167V8.83366C8.83333 6.99271 10.3257 5.50033 12.1667 5.50033H23.8333V8.83366C23.8333 11.5951 26.0719 13.8337 28.8333 13.8337H32.1667ZM31.9818 10.5003C31.8181 10.0297 31.5494 9.59712 31.1904 9.23806L28.4289 6.47664C28.0699 6.11758 27.6373 5.8489 27.1667 5.68523V8.83366C27.1667 9.75413 27.9129 10.5003 28.8333 10.5003H31.9818Z" fill="#3772FF"/>
<path d="M19.862 15.6265C19.6655 15.7078 19.4813 15.8284 19.3215 15.9882L14.3215 20.9882C13.6706 21.639 13.6706 22.6943 14.3215 23.3452C14.9724 23.9961 16.0276 23.9961 16.6785 23.3452L18.8333 21.1904V28.8333C18.8333 29.7538 19.5795 30.5 20.5 30.5C21.4205 30.5 22.1667 29.7538 22.1667 28.8333V21.1904L24.3215 23.3452C24.9724 23.9961 26.0276 23.9961 26.6785 23.3452C27.3294 22.6943 27.3294 21.639 26.6785 20.9882L21.6785 15.9882C21.1874 15.4971 20.4662 15.3765 19.862 15.6265Z" fill="#3772FF"/>
</svg>
